<svg xmlns="http://www.w3.org/2000/svg" version="1.1" xmlns:xlink="http://www.w3.org/1999/xlink" xmlns:svgjs="http://svgjs.dev/svgjs" width="2000" height="343" viewBox="0 0 2000 343"><g transform="matrix(1,0,0,1,-1.2121212121213603,-1.1372628020945683)"><svg viewBox="0 0 396 68" data-background-color="#ffffff" preserveAspectRatio="xMidYMid meet" height="343" width="2000" xmlns="http://www.w3.org/2000/svg" xmlns:xlink="http://www.w3.org/1999/xlink"><g id="tight-bounds" transform="matrix(1,0,0,1,0.24000000000003752,0.22546317942399696)"><svg viewBox="0 0 395.5199999999999 67.54907364115199" height="67.54907364115199" width="395.5199999999999"><g><svg viewBox="0 0 490.96266465452106 83.84929507940043" height="67.54907364115199" width="395.5199999999999"><g transform="matrix(1,0,0,1,95.44266465452108,1.4763624073314645)"><svg viewBox="0 0 395.52 80.8965702647375" height="80.8965702647375" width="395.52"><g id="textblocktransform"><svg viewBox="0 0 395.52 80.8965702647375" height="80.8965702647375" width="395.52" id="textblock"><g><svg viewBox="0 0 395.52 49.108632707774795" height="49.108632707774795" width="395.52"><g transform="matrix(1,0,0,1,0,0)"><svg width="395.52" viewBox="1.0499999523162842 -36.54999923706055 298.3700256347656 37.04999923706055" height="49.108632707774795" data-palette-color="#001f3f"><path d="M1.05-34.05L1.05-35 16-35Q22.95-35 26.43-33.13 29.9-31.25 29.9-26.8L29.9-26.8Q29.9-19.95 21.65-18.6L21.65-18.6 21.65-18.5Q31.65-17.25 31.65-9.8L31.65-9.8Q31.65-4.35 27.55-2.18 23.45 0 15.75 0L15.75 0 1.05 0 1.05-0.95 4.3-0.95 4.3-34.05 1.05-34.05ZM15.2-17.7L14.05-17.7 14.05-0.95 16.4-0.95Q19.15-0.95 20.25-2.85 21.35-4.75 21.35-8.45L21.35-8.45 21.35-11.1Q21.35-14.4 20-16.05 18.65-17.7 15.2-17.7L15.2-17.7ZM15.65-34.05L14.05-34.05 14.05-18.65 15.35-18.65Q17.95-18.65 18.98-20.23 20-21.8 20-25.05L20-25.05 20-27.4Q20-31.1 19.1-32.58 18.2-34.05 15.65-34.05L15.65-34.05ZM45.45-11.75L45.45-11.75 46.9-11.75 46.9-15.6Q46.9-20.35 46.37-21.98 45.85-23.6 44.35-23.6L44.35-23.6Q43.45-23.6 42.72-23.13 42-22.65 42-21.83 42-21 42.3-20.15L42.3-20.15 43.55-20.15Q43.95-19.1 43.95-17.63 43.95-16.15 42.7-15.08 41.45-14 39.55-14L39.55-14Q35.25-14 35.25-18.15L35.25-18.15Q35.25-24.3 45.7-24.3L45.7-24.3Q51.65-24.3 53.92-22.28 56.2-20.25 56.2-14.85L56.2-14.85 56.2-4.7Q56.2-2.1 57.65-2.1L57.65-2.1Q59.35-2.1 59.65-7.25L59.65-7.25 60.4-7.2Q60.2-2.8 58.75-1.15 57.3 0.5 54 0.5L54 0.5Q48 0.5 47.1-3.2L47.1-3.2Q46.45-1.3 45.15-0.4 43.85 0.5 41.35 0.5L41.35 0.5Q33.95 0.5 33.95-5.55L33.95-5.55Q33.95-9.1 36.77-10.43 39.6-11.75 45.45-11.75ZM43.45-5.6Q43.45-3 43.72-2.25 44-1.5 44.77-1.5 45.55-1.5 46.22-2.78 46.9-4.05 46.9-6.3L46.9-6.3 46.9-10.95 46.55-10.95Q43.45-10.95 43.45-6.4L43.45-6.4 43.45-5.6ZM62.65 0.5L62.05 0.5 62.05-8.45 62.65-8.45Q63.95-4.1 66.15-2.35 68.35-0.6 71.65-0.6L71.65-0.6Q76.75-0.6 76.75-3.85L76.75-3.85Q76.75-5.25 75.5-5.95L75.5-5.95Q73.55-7.05 70.5-7.65L70.5-7.65Q67.1-8.55 64.8-10.05L64.8-10.05Q62.05-11.85 62.05-15.75 62.05-19.65 64.45-21.98 66.85-24.3 70.85-24.3L70.85-24.3Q73.3-24.3 75.9-23.15L75.9-23.15Q76.85-22.75 77.35-22.75 77.85-22.75 78.2-23.1 78.55-23.45 79.05-24.4L79.05-24.4 79.6-24.4 79.6-16.75 79-16.75Q76.45-23.25 71.1-23.25L71.1-23.25Q68.75-23.25 67.6-22.43 66.45-21.6 66.45-20.35L66.45-20.35Q66.45-19.6 66.8-19.18 67.15-18.75 67.35-18.55 67.55-18.35 68-18.13 68.45-17.9 68.75-17.78 69.05-17.65 69.67-17.45 70.3-17.25 70.6-17.2L70.6-17.2Q74-16.35 75.5-15.73 77-15.1 78.35-14.2L78.35-14.2Q81.1-12.3 81.1-8.08 81.1-3.85 78.6-1.68 76.1 0.5 71.75 0.5L71.75 0.5Q68.65 0.5 65.75-0.95L65.75-0.95Q65.15-1.35 64.8-1.35L64.8-1.35Q63.7-1.35 62.65 0.5L62.65 0.5ZM95.74 0.5Q89.29 0.5 86.07-2.83 82.84-6.15 82.84-12.08 82.84-18 86.47-21.15 90.09-24.3 95.69-24.3L95.69-24.3Q107.04-24.3 106.59-12.9L106.59-12.9 92.49-12.9 92.49-10.95Q92.49-6.05 93.74-3.55 94.99-1.05 98.09-1.05L98.09-1.05Q103.89-1.05 105.69-7.25L105.69-7.25 106.59-7.1Q105.64-3.5 103.17-1.5 100.69 0.5 95.74 0.5L95.74 0.5ZM92.54-16.35L92.54-13.9 97.69-13.9 97.69-16.35Q97.69-20.4 97.22-21.88 96.74-23.35 95.32-23.35 93.89-23.35 93.22-21.78 92.54-20.2 92.54-16.35L92.54-16.35ZM136.39-0.5L136.39-0.5Q138.84-0.5 139.51-1.4 140.19-2.3 140.19-4.45L140.19-4.45 140.19-14.15 136.99-14.15 136.99-15.25 151.39-15.25 151.39-14.15 149.44-14.15 149.44-0.05 148.69-0.05Q147.79-1.3 146.14-1.3L146.14-1.3Q145.44-1.3 141.96-0.4 138.49 0.5 136.04 0.5L136.04 0.5Q127.89 0.5 123.41-3.9 118.94-8.3 118.94-17.13 118.94-25.95 123.61-30.75 128.29-35.55 136.19-35.55L136.19-35.55Q139.24-35.55 142.31-34.77 145.39-34 145.89-34 146.39-34 146.64-34.23 146.89-34.45 147.19-35L147.19-35 147.74-35 148.14-24.15 147.24-24.15Q144.79-29 142.31-31.78 139.84-34.55 136.79-34.55L136.79-34.55Q129.14-34.55 129.14-19.6L129.14-19.6 129.14-15.65Q129.14-8.15 131.01-4.33 132.89-0.5 136.39-0.5ZM166.69 0.5Q160.24 0.5 157.01-2.83 153.79-6.15 153.79-12.08 153.79-18 157.41-21.15 161.04-24.3 166.64-24.3L166.64-24.3Q177.99-24.3 177.54-12.9L177.54-12.9 163.44-12.9 163.44-10.95Q163.44-6.05 164.69-3.55 165.94-1.05 169.04-1.05L169.04-1.05Q174.84-1.05 176.64-7.25L176.64-7.25 177.54-7.1Q176.59-3.5 174.11-1.5 171.64 0.5 166.69 0.5L166.69 0.5ZM163.49-16.35L163.49-13.9 168.64-13.9 168.64-16.35Q168.64-20.4 168.16-21.88 167.69-23.35 166.26-23.35 164.84-23.35 164.16-21.78 163.49-20.2 163.49-16.35L163.49-16.35ZM179.43-22.9L179.43-23.8 191.48-23.8 191.48-19.2Q192.28-21.5 193.93-22.9 195.58-24.3 198.93-24.3L198.93-24.3Q206.68-24.3 206.68-15.95L206.68-15.95 206.68-0.9 209.48-0.9 209.48 0 195.33 0 195.33-0.9 197.38-0.9 197.38-17.15Q197.38-20.15 196.98-21.03 196.58-21.9 195.53-21.9L195.53-21.9Q193.93-21.9 192.71-19.8 191.48-17.7 191.48-14.7L191.48-14.7 191.48-0.9 193.63-0.9 193.63 0 179.43 0 179.43-0.9 182.18-0.9 182.18-22.9 179.43-22.9ZM223.28 0.5Q216.83 0.5 213.61-2.83 210.38-6.15 210.38-12.08 210.38-18 214.01-21.15 217.63-24.3 223.23-24.3L223.23-24.3Q234.58-24.3 234.13-12.9L234.13-12.9 220.03-12.9 220.03-10.95Q220.03-6.05 221.28-3.55 222.53-1.05 225.63-1.05L225.63-1.05Q231.43-1.05 233.23-7.25L233.23-7.25 234.13-7.1Q233.18-3.5 230.71-1.5 228.23 0.5 223.28 0.5L223.28 0.5ZM220.08-16.35L220.08-13.9 225.23-13.9 225.23-16.35Q225.23-20.4 224.76-21.88 224.28-23.35 222.86-23.35 221.43-23.35 220.76-21.78 220.08-20.2 220.08-16.35L220.08-16.35ZM252.63-22.4L252.63-22.4Q250.78-22.4 249.38-20 247.98-17.6 247.98-14.3L247.98-14.3 247.98-0.9 251.53-0.9 251.53 0 235.93 0 235.93-0.9 238.68-0.9 238.68-22.9 235.93-22.9 235.93-23.8 247.98-23.8 247.98-19Q248.63-21.55 250.48-22.93 252.33-24.3 254.68-24.3 257.03-24.3 258.5-22.98 259.98-21.65 259.98-19.23 259.98-16.8 258.88-15.5 257.78-14.2 255.5-14.2 253.23-14.2 252.15-15.7 251.08-17.2 251.88-19.85L251.88-19.85 253.68-19.85Q254.93-22.4 252.63-22.4ZM268.03-27.25Q265.38-27.25 264.25-28.6 263.13-29.95 263.13-31.95 263.13-33.95 264.35-35.25 265.58-36.55 268.08-36.55 270.58-36.55 271.88-35.38 273.18-34.2 273.18-32.02 273.18-29.85 271.93-28.55 270.68-27.25 268.03-27.25ZM260.48-22.9L260.48-23.8 272.73-23.8 272.73-0.9 275.53-0.9 275.53 0 260.68 0 260.68-0.9 263.43-0.9 263.43-22.9 260.48-22.9ZM290.52-23.4L290.52-23.4Q288.32-23.4 287.37-21 286.42-18.6 286.42-13.05L286.42-13.05 286.42-10.45Q286.42-5.5 287.52-3.35 288.62-1.2 291.57-1.2 294.52-1.2 296.27-3.2 298.02-5.2 298.52-7.75L298.52-7.75 299.42-7.65Q298.47-3.35 295.92-1.45L295.92-1.45Q293.32 0.5 288.77 0.5L288.77 0.5Q282.97 0.5 279.87-2.63 276.77-5.75 276.77-11.78 276.77-17.8 280.3-21.05 283.82-24.3 290.12-24.3L290.12-24.3Q294.57-24.3 296.92-22.58 299.27-20.85 299.27-18.25 299.27-15.65 298.15-14.45 297.02-13.25 295.05-13.25 293.07-13.25 291.87-14.3 290.67-15.35 290.67-17.4L290.67-17.4Q290.67-18.3 290.92-19.2L290.92-19.2 292.57-19.2Q292.92-20.2 292.92-21L292.92-21Q292.92-23.4 290.52-23.4Z" opacity="1" transform="matrix(1,0,0,1,0,0)" fill="#001f3f" class="wordmark-text-0" data-fill-palette-color="primary" id="text-0"></path></svg></g></svg></g><g transform="matrix(1,0,0,1,0,60.702002282895435)"><svg viewBox="0 0 232.209792 20.19456798184207" height="20.19456798184207" width="232.209792"><g transform="matrix(1,0,0,1,0,0)"><svg width="232.209792" viewBox="3 -35.900001525878906 418.510009765625 36.400001525878906" height="20.19456798184207" data-palette-color="#5d36ff"><path d="M16.95 0.5L16.95 0.5Q12.65 0.5 9.6-0.98 6.55-2.45 4.9-5.53 3.25-8.6 3.05-13.25L3.05-13.25Q3-15.45 3-17.48 3-19.5 3.05-21.7L3.05-21.7Q3.25-26.3 4.98-29.38 6.7-32.45 9.78-33.98 12.85-35.5 16.95-35.5L16.95-35.5Q21-35.5 24.08-33.98 27.15-32.45 28.9-29.38 30.65-26.3 30.8-21.7L30.8-21.7Q30.9-19.5 30.9-17.48 30.9-15.45 30.8-13.25L30.8-13.25Q30.65-8.6 28.98-5.53 27.3-2.45 24.25-0.98 21.2 0.5 16.95 0.5ZM16.95-3.75L16.95-3.75Q20.75-3.75 23.18-6.05 25.6-8.35 25.8-13.5L25.8-13.5Q25.9-15.75 25.9-17.53 25.9-19.3 25.8-21.5L25.8-21.5Q25.7-24.95 24.53-27.1 23.35-29.25 21.4-30.25 19.45-31.25 16.95-31.25L16.95-31.25Q14.45-31.25 12.5-30.25 10.55-29.25 9.38-27.1 8.2-24.95 8.05-21.5L8.05-21.5Q8-19.3 8-17.53 8-15.75 8.05-13.5L8.05-13.5Q8.25-8.35 10.7-6.05 13.15-3.75 16.95-3.75ZM46.4 0L44.45 0Q43.8 0 43.45-0.33 43.1-0.65 42.85-1.25L42.85-1.25 35.75-24.45Q35.65-24.7 35.65-24.95L35.65-24.95Q35.65-25.4 35.97-25.7 36.3-26 36.7-26L36.7-26 38.9-26Q39.45-26 39.75-25.7 40.05-25.4 40.15-25.15L40.15-25.15 45.7-6.3 51.65-24.95Q51.75-25.3 52.07-25.65 52.4-26 53.05-26L53.05-26 54.75-26Q55.4-26 55.75-25.65 56.1-25.3 56.15-24.95L56.15-24.95 62.1-6.3 67.65-25.15Q67.7-25.4 68-25.7 68.3-26 68.85-26L68.85-26 71.1-26Q71.5-26 71.8-25.7 72.1-25.4 72.1-24.95L72.1-24.95Q72.1-24.7 72-24.45L72-24.45 64.95-1.25Q64.75-0.65 64.4-0.33 64.05 0 63.3 0L63.3 0 61.35 0Q60.7 0 60.27-0.33 59.85-0.65 59.7-1.25L59.7-1.25 53.9-19.15 48.1-1.25Q47.9-0.65 47.5-0.33 47.1 0 46.4 0L46.4 0ZM81.3 0L78.8 0Q78.3 0 77.97-0.33 77.65-0.65 77.65-1.15L77.65-1.15 77.65-24.85Q77.65-25.35 77.97-25.68 78.3-26 78.8-26L78.8-26 81.15-26Q81.65-26 81.97-25.68 82.3-25.35 82.3-24.85L82.3-24.85 82.3-22.65Q83.6-24.35 85.57-25.43 87.55-26.5 90.65-26.5L90.65-26.5Q93.9-26.5 96.17-25.08 98.45-23.65 99.62-21.13 100.8-18.6 100.8-15.25L100.8-15.25 100.8-1.15Q100.8-0.65 100.47-0.33 100.15 0 99.65 0L99.65 0 97.15 0Q96.65 0 96.32-0.33 96-0.65 96-1.15L96-1.15 96-15Q96-18.5 94.3-20.48 92.6-22.45 89.3-22.45L89.3-22.45Q86.2-22.45 84.32-20.48 82.45-18.5 82.45-15L82.45-15 82.45-1.15Q82.45-0.65 82.12-0.33 81.8 0 81.3 0L81.3 0ZM133.94 0L131.34 0Q130.84 0 130.52-0.33 130.19-0.65 130.19-1.15L130.19-1.15 130.19-12.95 118.14-33.35Q118.09-33.5 118.04-33.65 117.99-33.8 117.99-34L117.99-34Q117.99-34.4 118.29-34.7 118.59-35 118.99-35L118.99-35 121.59-35Q122.04-35 122.39-34.77 122.74-34.55 122.89-34.15L122.89-34.15 132.64-17.95 142.39-34.15Q142.64-34.55 142.97-34.77 143.29-35 143.74-35L143.74-35 146.29-35Q146.74-35 147.04-34.7 147.34-34.4 147.34-34L147.34-34Q147.34-33.8 147.29-33.65 147.24-33.5 147.14-33.35L147.14-33.35 135.14-12.95 135.14-1.15Q135.14-0.65 134.81-0.33 134.49 0 133.94 0L133.94 0ZM163.19 0.5L163.19 0.5Q159.39 0.5 156.84-0.95 154.29-2.4 152.94-4.98 151.59-7.55 151.44-10.85L151.44-10.85Q151.39-11.7 151.39-13.03 151.39-14.35 151.44-15.15L151.44-15.15Q151.59-18.5 152.96-21.05 154.34-23.6 156.89-25.05 159.44-26.5 163.19-26.5L163.19-26.5Q166.94-26.5 169.49-25.05 172.04-23.6 173.41-21.05 174.79-18.5 174.94-15.15L174.94-15.15Q174.99-14.35 174.99-13.03 174.99-11.7 174.94-10.85L174.94-10.85Q174.79-7.55 173.44-4.98 172.09-2.4 169.54-0.95 166.99 0.5 163.19 0.5ZM163.19-3.35L163.19-3.35Q166.29-3.35 168.14-5.33 169.99-7.3 170.14-11.1L170.14-11.1Q170.19-11.85 170.19-13 170.19-14.15 170.14-14.9L170.14-14.9Q169.99-18.7 168.14-20.68 166.29-22.65 163.19-22.65L163.19-22.65Q160.09-22.65 158.21-20.68 156.34-18.7 156.24-14.9L156.24-14.9Q156.19-14.15 156.19-13 156.19-11.85 156.24-11.1L156.24-11.1Q156.34-7.3 158.21-5.33 160.09-3.35 163.19-3.35ZM190.94 0.5L190.94 0.5Q187.74 0.5 185.51-0.93 183.29-2.35 182.14-4.9 180.99-7.45 180.99-10.75L180.99-10.75 180.99-24.85Q180.99-25.35 181.31-25.68 181.64-26 182.14-26L182.14-26 184.64-26Q185.14-26 185.46-25.68 185.79-25.35 185.79-24.85L185.79-24.85 185.79-11Q185.79-3.55 192.29-3.55L192.29-3.55Q195.39-3.55 197.26-5.53 199.14-7.5 199.14-11L199.14-11 199.14-24.85Q199.14-25.35 199.46-25.68 199.79-26 200.29-26L200.29-26 202.79-26Q203.29-26 203.59-25.68 203.89-25.35 203.89-24.85L203.89-24.85 203.89-1.15Q203.89-0.65 203.59-0.33 203.29 0 202.79 0L202.79 0 200.44 0Q199.94 0 199.61-0.33 199.29-0.65 199.29-1.15L199.29-1.15 199.29-3.35Q197.94-1.6 196.01-0.55 194.09 0.5 190.94 0.5ZM214.93 0L212.48 0Q211.98 0 211.66-0.33 211.33-0.65 211.33-1.15L211.33-1.15 211.33-24.8Q211.33-25.3 211.66-25.65 211.98-26 212.48-26L212.48-26 214.78-26Q215.28-26 215.63-25.65 215.98-25.3 215.98-24.8L215.98-24.8 215.98-22.6Q216.98-24.3 218.73-25.15 220.48-26 222.98-26L222.98-26 224.93-26Q225.43-26 225.76-25.68 226.08-25.35 226.08-24.85L226.08-24.85 226.08-22.8Q226.08-22.3 225.76-22 225.43-21.7 224.93-21.7L224.93-21.7 221.93-21.7Q219.23-21.7 217.68-20.13 216.13-18.55 216.13-15.85L216.13-15.85 216.13-1.15Q216.13-0.65 215.78-0.33 215.43 0 214.93 0L214.93 0ZM243.43 0L240.88 0Q240.48 0 240.18-0.3 239.88-0.6 239.88-1L239.88-1Q239.88-1.25 239.93-1.55L239.93-1.55 252.33-33.9Q252.53-34.4 252.88-34.7 253.23-35 253.93-35L253.93-35 257.33-35Q258.03-35 258.38-34.7 258.73-34.4 258.93-33.9L258.93-33.9 271.28-1.55Q271.38-1.25 271.38-1L271.38-1Q271.38-0.6 271.08-0.3 270.78 0 270.38 0L270.38 0 267.83 0Q267.23 0 266.95-0.3 266.68-0.6 266.58-0.85L266.58-0.85 263.83-7.95 247.43-7.95 244.68-0.85Q244.63-0.6 244.33-0.3 244.03 0 243.43 0L243.43 0ZM255.63-30L248.88-12.25 262.38-12.25 255.63-30ZM288.93 0.5L288.93 0.5Q285.93 0.5 283.93-0.58 281.93-1.65 280.73-3.25L280.73-3.25 280.73-1.15Q280.73-0.65 280.4-0.33 280.08 0 279.58 0L279.58 0 277.28 0Q276.78 0 276.45-0.33 276.13-0.65 276.13-1.15L276.13-1.15 276.13-34.35Q276.13-34.85 276.45-35.18 276.78-35.5 277.28-35.5L277.28-35.5 279.73-35.5Q280.23-35.5 280.53-35.18 280.83-34.85 280.83-34.35L280.83-34.35 280.83-22.85Q282.08-24.4 284.05-25.45 286.03-26.5 288.93-26.5L288.93-26.5Q291.73-26.5 293.7-25.53 295.68-24.55 296.95-22.85 298.23-21.15 298.88-19 299.53-16.85 299.63-14.5L299.63-14.5Q299.68-13.7 299.68-13 299.68-12.3 299.63-11.5L299.63-11.5Q299.53-9.1 298.88-6.95 298.23-4.8 296.95-3.13 295.68-1.45 293.7-0.48 291.73 0.5 288.93 0.5ZM287.88-3.55L287.88-3.55Q290.48-3.55 291.95-4.67 293.43-5.8 294.08-7.63 294.73-9.45 294.83-11.55L294.83-11.55Q294.88-13 294.83-14.45L294.83-14.45Q294.73-16.55 294.08-18.38 293.43-20.2 291.95-21.33 290.48-22.45 287.88-22.45L287.88-22.45Q285.53-22.45 283.98-21.35 282.43-20.25 281.65-18.55 280.88-16.85 280.83-15.1L280.83-15.1Q280.78-14.3 280.78-13.18 280.78-12.05 280.83-11.25L280.83-11.25Q280.93-9.4 281.65-7.63 282.38-5.85 283.9-4.7 285.43-3.55 287.88-3.55ZM309.37 0L306.97 0Q306.47 0 306.15-0.33 305.82-0.65 305.82-1.15L305.82-1.15 305.82-24.85Q305.82-25.35 306.15-25.68 306.47-26 306.97-26L306.97-26 309.37-26Q309.87-26 310.2-25.68 310.52-25.35 310.52-24.85L310.52-24.85 310.52-1.15Q310.52-0.65 310.2-0.33 309.87 0 309.37 0L309.37 0ZM309.72-30.85L306.57-30.85Q306.07-30.85 305.75-31.18 305.42-31.5 305.42-32L305.42-32 305.42-34.7Q305.42-35.2 305.75-35.55 306.07-35.9 306.57-35.9L306.57-35.9 309.72-35.9Q310.22-35.9 310.57-35.55 310.92-35.2 310.92-34.7L310.92-34.7 310.92-32Q310.92-31.5 310.57-31.18 310.22-30.85 309.72-30.85L309.72-30.85ZM321.47 0L319.12 0Q318.62 0 318.3-0.33 317.97-0.65 317.97-1.15L317.97-1.15 317.97-34.35Q317.97-34.85 318.3-35.18 318.62-35.5 319.12-35.5L319.12-35.5 321.47-35.5Q322.02-35.5 322.32-35.18 322.62-34.85 322.62-34.35L322.62-34.35 322.62-1.15Q322.62-0.65 322.32-0.33 322.02 0 321.47 0L321.47 0ZM333.62 0L331.22 0Q330.72 0 330.39-0.33 330.07-0.65 330.07-1.15L330.07-1.15 330.07-24.85Q330.07-25.35 330.39-25.68 330.72-26 331.22-26L331.22-26 333.62-26Q334.12-26 334.44-25.68 334.77-25.35 334.77-24.85L334.77-24.85 334.77-1.15Q334.77-0.65 334.44-0.33 334.12 0 333.62 0L333.62 0ZM333.97-30.85L330.82-30.85Q330.32-30.85 329.99-31.18 329.67-31.5 329.67-32L329.67-32 329.67-34.7Q329.67-35.2 329.99-35.55 330.32-35.9 330.82-35.9L330.82-35.9 333.97-35.9Q334.47-35.9 334.82-35.55 335.17-35.2 335.17-34.7L335.17-34.7 335.17-32Q335.17-31.5 334.82-31.18 334.47-30.85 333.97-30.85L333.97-30.85ZM355.77 0L352.32 0Q349.52 0 347.77-1.07 346.02-2.15 345.22-4.13 344.42-6.1 344.42-8.8L344.42-8.8 344.42-22 340.52-22Q340.02-22 339.69-22.33 339.37-22.65 339.37-23.15L339.37-23.15 339.37-24.85Q339.37-25.35 339.69-25.68 340.02-26 340.52-26L340.52-26 344.42-26 344.42-34.35Q344.42-34.85 344.74-35.18 345.07-35.5 345.57-35.5L345.57-35.5 347.92-35.5Q348.42-35.5 348.74-35.18 349.07-34.85 349.07-34.35L349.07-34.35 349.07-26 355.27-26Q355.82-26 356.12-25.68 356.42-25.35 356.42-24.85L356.42-24.85 356.42-23.15Q356.42-22.65 356.12-22.33 355.82-22 355.27-22L355.27-22 349.07-22 349.07-9.15Q349.07-6.8 349.87-5.45 350.67-4.1 352.72-4.1L352.72-4.1 355.77-4.1Q356.27-4.1 356.59-3.78 356.92-3.45 356.92-2.95L356.92-2.95 356.92-1.15Q356.92-0.65 356.59-0.33 356.27 0 355.77 0L355.77 0ZM365.26 0L362.86 0Q362.36 0 362.04-0.33 361.71-0.65 361.71-1.15L361.71-1.15 361.71-24.85Q361.71-25.35 362.04-25.68 362.36-26 362.86-26L362.86-26 365.26-26Q365.76-26 366.09-25.68 366.41-25.35 366.41-24.85L366.41-24.85 366.41-1.15Q366.41-0.65 366.09-0.33 365.76 0 365.26 0L365.26 0ZM365.61-30.85L362.46-30.85Q361.96-30.85 361.64-31.18 361.31-31.5 361.31-32L361.31-32 361.31-34.7Q361.31-35.2 361.64-35.55 361.96-35.9 362.46-35.9L362.46-35.9 365.61-35.9Q366.11-35.9 366.46-35.55 366.81-35.2 366.81-34.7L366.81-34.7 366.81-32Q366.81-31.5 366.46-31.18 366.11-30.85 365.61-30.85L365.61-30.85ZM384.21 0.5L384.21 0.5Q379.01 0.5 375.96-2.68 372.91-5.85 372.61-11.35L372.61-11.35Q372.56-12 372.56-13.03 372.56-14.05 372.61-14.7L372.61-14.7Q372.81-18.25 374.26-20.93 375.71-23.6 378.24-25.05 380.76-26.5 384.16-26.5L384.16-26.5Q387.96-26.5 390.54-24.9 393.11-23.3 394.46-20.35 395.81-17.4 395.81-13.45L395.81-13.45 395.81-12.6Q395.81-12.05 395.49-11.75 395.16-11.45 394.66-11.45L394.66-11.45 377.36-11.45Q377.36-11.4 377.36-11.25 377.36-11.1 377.36-11L377.36-11Q377.46-8.95 378.26-7.18 379.06-5.4 380.59-4.3 382.11-3.2 384.16-3.2L384.16-3.2Q385.96-3.2 387.16-3.75 388.36-4.3 389.11-4.98 389.86-5.65 390.11-6.05L390.11-6.05Q390.56-6.65 390.81-6.78 391.06-6.9 391.61-6.9L391.61-6.9 394.06-6.9Q394.51-6.9 394.84-6.63 395.16-6.35 395.11-5.85L395.11-5.85Q395.06-5.1 394.31-4.03 393.56-2.95 392.19-1.9 390.81-0.85 388.79-0.18 386.76 0.5 384.21 0.5ZM377.36-15.05L377.36-14.9 391.06-14.9 391.06-15.05Q391.06-17.3 390.24-19.05 389.41-20.8 387.86-21.83 386.31-22.85 384.16-22.85L384.16-22.85Q382.01-22.85 380.49-21.83 378.96-20.8 378.16-19.05 377.36-17.3 377.36-15.05L377.36-15.05ZM410.81 0.5L410.81 0.5Q408.01 0.5 406.01-0.2 404.01-0.9 402.76-1.9 401.51-2.9 400.88-3.9 400.26-4.9 400.21-5.5L400.21-5.5Q400.16-6.05 400.56-6.35 400.96-6.65 401.36-6.65L401.36-6.65 403.61-6.65Q403.86-6.65 404.03-6.58 404.21-6.5 404.51-6.15L404.51-6.15Q405.16-5.45 405.96-4.75 406.76-4.05 407.93-3.6 409.11-3.15 410.86-3.15L410.86-3.15Q413.41-3.15 415.06-4.13 416.71-5.1 416.71-7L416.71-7Q416.71-8.25 416.03-9 415.36-9.75 413.63-10.35 411.91-10.95 408.91-11.6L408.91-11.6Q405.91-12.3 404.16-13.33 402.41-14.35 401.66-15.78 400.91-17.2 400.91-19L400.91-19Q400.91-20.85 402.01-22.58 403.11-24.3 405.23-25.4 407.36-26.5 410.56-26.5L410.56-26.5Q413.16-26.5 415.01-25.85 416.86-25.2 418.06-24.23 419.26-23.25 419.86-22.3 420.46-21.35 420.51-20.7L420.51-20.7Q420.56-20.2 420.21-19.88 419.86-19.55 419.41-19.55L419.41-19.55 417.31-19.55Q416.96-19.55 416.73-19.7 416.51-19.85 416.31-20.05L416.31-20.05Q415.81-20.7 415.13-21.35 414.46-22 413.38-22.43 412.31-22.85 410.56-22.85L410.56-22.85Q408.06-22.85 406.81-21.8 405.56-20.75 405.56-19.15L405.56-19.15Q405.56-18.2 406.11-17.45 406.66-16.7 408.21-16.1 409.76-15.5 412.81-14.8L412.81-14.8Q416.11-14.15 418.01-13.05 419.91-11.95 420.71-10.5 421.51-9.05 421.51-7.15L421.51-7.15Q421.51-5.05 420.31-3.3 419.11-1.55 416.71-0.53 414.31 0.5 410.81 0.5Z" opacity="1" transform="matrix(1,0,0,1,0,0)" fill="#5d36ff" class="slogan-text-1" data-fill-palette-color="secondary" id="text-1"></path></svg></g></svg></g></svg></g></svg></g><g><svg viewBox="0 0 83.84929507940043 83.84929507940043" height="83.84929507940043" width="83.84929507940043"><g><svg></svg></g><g id="icon-0"><svg viewBox="0 0 83.84929507940043 83.84929507940043" height="83.84929507940043" width="83.84929507940043"><g><path xmlns="http://www.w3.org/2000/svg" d="M25.155 83.849c-13.893 0-25.155-11.262-25.155-25.154v-33.54c0-13.893 11.262-25.155 25.155-25.155h33.54c13.893 0 25.155 11.262 25.154 25.155v33.54c0 13.893-11.262 25.155-25.154 25.154z" fill="#5d36ff" fill-rule="nonzero" stroke="none" stroke-width="1" stroke-linecap="butt" stroke-linejoin="miter" stroke-miterlimit="10" stroke-dasharray="" stroke-dashoffset="0" font-family="none" font-weight="none" font-size="none" text-anchor="none" style="mix-blend-mode: normal" data-fill-palette-color="accent"></path></g><g transform="matrix(1,0,0,1,27.775078995051395,16.769859015880087)"><svg viewBox="0 0 28.299137089297645 50.30957704764026" height="50.30957704764026" width="28.299137089297645"><g><svg xmlns="http://www.w3.org/2000/svg" version="1.1" data-icon="electric" data-container-transform="translate(7)" viewBox="7 0 18 32" x="0" y="0" height="50.30957704764026" width="28.299137089297645" class="icon-s-0" data-fill-palette-color="quaternary" id="s-0"><path d="M11 0l-11 20h7v12l11-20h-7v-12z" transform="translate(7)" fill="#ffffff" data-fill-palette-color="quaternary"></path></svg></g></svg></g></svg></g></svg></g></svg></g><defs></defs></svg><rect width="395.5199999999999" height="67.54907364115199" fill="none" stroke="none" visibility="hidden"></rect></g></svg></g></svg>